<?xml version="1.0" standalone="no"?>
<!DOCTYPE svg PUBLIC "-//W3C//DTD SVG 20010904//EN"
 "http://www.w3.org/TR/2001/REC-SVG-20010904/DTD/svg10.dtd">
<svg version="1.0" xmlns="http://www.w3.org/2000/svg"
 width="512.000000pt" height="512.000000pt" viewBox="0 0 512.000000 512.000000"
 preserveAspectRatio="xMidYMid meet">
<metadata>
Created by potrace 1.11, written by Peter Selinger 2001-2013
</metadata>
<g transform="translate(0.000000,512.000000) scale(0.100000,-0.100000)"
fill="#000000" stroke="none">
<path d="M2475 4774 c-21 -14 -97 -78 -169 -142 -72 -64 -149 -133 -171 -152
-21 -19 -62 -56 -90 -81 -27 -25 -68 -61 -90 -81 -22 -19 -246 -219 -498 -443
-252 -224 -467 -421 -478 -438 -19 -31 -19 -64 -17 -1524 3 -1489 3 -1492 24
-1519 11 -15 33 -37 48 -48 27 -21 30 -21 1520 -24 l1493 -2 34 23 c18 12 44
38 56 56 l23 34 0 1481 c0 1390 -1 1483 -18 1516 -15 31 -94 104 -482 449 -36
32 -105 93 -155 137 -49 43 -92 81 -95 84 -3 3 -70 64 -150 134 -80 71 -161
143 -180 160 -19 17 -96 85 -170 151 -74 66 -137 122 -140 125 -18 20 -129
109 -147 119 -39 20 -107 13 -148 -15z"/>
</g>
</svg>
